Coordinates
version=1
nRows=13
nColumns=40
inDegrees=yes

Units are S.I. units (second, meters, Newtons, ...)
Angles are in degrees.

endheader
time	pelvis_tilt	pelvis_list	pelvis_rotation	pelvis_tx	pelvis_ty	pelvis_tz	hip_flexion_r	hip_adduction_r	hip_rotation_r	knee_angle_r	knee_angle_r_beta	ankle_angle_r	subtalar_angle_r	mtp_angle_r	hip_flexion_l	hip_adduction_l	hip_rotation_l	knee_angle_l	knee_angle_l_beta	ankle_angle_l	subtalar_angle_l	mtp_angle_l	lumbar_extension	lumbar_bending	lumbar_rotation	arm_flex_r	arm_add_r	arm_rot_r	elbow_flex_r	pro_sup_r	wrist_flex_r	wrist_dev_r	arm_flex_l	arm_add_l	arm_rot_l	elbow_flex_l	pro_sup_l	wrist_flex_l	wrist_dev_l
     30.95314286	     -2.57939360	     -5.55031947	     -1.95369160	      1.03321942	      0.93736047	      0.41224236	     30.27126664	     -3.33470105	     -5.19585153	     45.93179190	     45.93179190	      2.71089213	    -11.01427081	     -0.75312175	     11.99779369	     -6.50954617	     -8.95318178	     19.92150138	     19.92150138	     12.01939754	    -11.16241424	     -2.88370364	    -11.73773757	      3.73655087	      0.41060301	      0.52237973	    -16.48232702	     -3.59127358	     25.00353346	     47.15032974	      0.00000000	      0.00000000	     10.23234521	    -16.93829553	     -2.44127673	     49.42037643	     46.11137827	      0.00000000	      0.00000000
     30.96628571	     -2.61385439	     -5.51247495	     -2.33987688	      1.03287938	      0.93740877	      0.41252922	     30.23140310	     -3.21472061	     -5.43916100	     42.70364251	     42.70364251	      2.34586634	    -10.00234459	     -0.52484084	     11.40659887	     -6.48437807	     -9.35725850	     19.54523380	     19.54523380	     12.18525186	    -11.06392271	     -3.08834988	    -11.74393609	      3.72918649	      0.37524654	     -0.31976402	    -16.81406273	     -4.17201857	     24.58015745	     47.20009352	      0.00000000	      0.00000000	     10.74324413	    -17.31419744	     -2.50259864	     50.59084739	     46.14517310	      0.00000000	      0.00000000
     30.97942857	     -2.83728409	     -5.20557183	     -2.72483254	      1.03242378	      0.93685041	      0.41286955	     30.45745192	     -3.27435430	     -5.42272874	     39.62311345	     39.62311345	      1.98691533	     -9.17672228	     -0.03385392	     11.20196844	     -6.19166384	     -9.75787258	     19.47298339	     19.47298339	     12.36077337	    -11.14447919	     -3.22193088	    -11.49723913	      3.42440274	      0.06581662	     -0.95661675	    -17.08772352	     -4.33330294	     24.34327231	     47.21594056	      0.00000000	      0.00000000	     11.30054606	    -17.86881958	     -2.64382045	     51.07920202	     46.17095017	      0.00000000	      0.00000000
     30.99257143	     -2.67110330	     -5.29386359	     -3.09121432	      1.03260967	      0.93717842	      0.41343737	     29.72929796	     -3.04790556	     -6.05057040	     35.83926179	     35.83926179	      0.85540463	     -7.65583710	     -1.74248300	     10.14413985	     -6.27102255	    -10.19257802	     18.66355261	     18.66355261	     12.13789376	    -11.00960833	     -4.32561973	    -11.75815466	      3.57448936	      0.44691905	     -1.67396009	    -16.61898297	    -11.64030520	     23.69799910	     47.62292759	      0.00000000	      0.00000000	     11.37949745	    -18.30724335	     -2.04557233	     54.09403349	     46.36641728	      0.00000000	      0.00000000
     31.00571429	     -2.83477547	     -5.12303410	     -3.46201434	      1.03255870	      0.93672063	      0.41413096	     29.56813652	     -2.92523987	     -6.23221286	     32.56752770	     32.56752770	      0.38328276	     -6.34616163	     -1.05398699	      9.74911017	     -6.11743735	    -10.55359161	     18.40007359	     18.40007359	     12.33339583	    -10.99732713	     -4.39073185	    -11.51180640	      3.41839446	      0.29609765	     -2.30819253	    -16.76653664	    -11.70778447	     23.54322784	     47.62375340	      0.00000000	      0.00000000	     11.92620616	    -18.72309145	     -2.18734855	     54.65180843	     46.39401125	      0.00000000	      0.00000000
     31.01885714	     -2.69185765	     -5.00996456	     -3.77411821	      1.03296746	      0.93672015	      0.41477648	     28.88719692	     -2.84279079	     -6.75089623	     29.27990046	     29.27990046	      0.00040235	     -4.38812160	     -0.39193553	      8.85748936	     -5.98071045	    -10.95166762	     17.89165559	     17.89165559	     12.55927087	    -10.74196821	     -4.53178003	    -11.60711350	      3.36265282	      0.35632786	     -3.11092909	    -17.05466412	    -11.87011066	     23.55152447	     47.61888923	      0.00000000	      0.00000000	     12.43497128	    -18.94458270	     -2.29046935	     55.78126806	     46.42834663	      0.00000000	      0.00000000
     31.03200000	     -2.63395754	     -4.75739782	     -4.09967580	      1.03347884	      0.93644032	      0.41561828	     28.32782359	     -2.86315820	     -7.21061252	     26.30687216	     26.30687216	     -0.36186356	     -2.42916368	      0.32437647	      8.06963977	     -5.71140555	    -11.43764021	     17.39686712	     17.39686712	     12.72303451	    -10.47057668	     -4.77737678	    -11.58913603	      3.10671549	      0.39624116	     -3.91667151	    -17.17727851	    -12.09909031	     23.84477985	     47.60315625	      0.00000000	      0.00000000	     12.82266150	    -19.29056625	     -2.39491164	     57.06396594	     46.46561021	      0.00000000	      0.00000000
     31.04514286	     -2.63984422	     -4.52157978	     -4.39038207	      1.03421029	      0.93597941	      0.41659233	     27.81306953	     -2.82137974	     -7.57562784	     23.62706355	     23.62706355	     -0.74326911	     -0.73099975	      1.10099629	      7.34289347	     -5.45756332	    -11.83352445	     16.90074704	     16.90074704	     12.89420049	    -10.21395191	     -5.03228843	    -11.40533486	      2.88841340	      0.34575259	     -4.63253874	    -17.20298264	    -12.30161446	     24.16062649	     47.58730891	      0.00000000	      0.00000000	     13.14729129	    -19.58177242	     -2.48389617	     58.11111104	     46.49645881	      0.00000000	      0.00000000
     31.05828571	     -2.53092152	     -4.16858764	     -4.68042396	      1.03519326	      0.93549716	      0.41759198	     27.31205290	     -2.99058786	     -8.13986522	     21.59307091	     21.59307091	     -0.64988371	      1.35713606	      2.63997544	      6.42187141	     -5.06255270	    -12.35939352	     16.26047530	     16.26047530	     12.78190624	     -9.91605451	     -6.04143175	    -11.40812010	      2.52718997	      0.30280887	     -5.91767365	    -17.15213437	    -13.18672057	     26.26830639	     47.49215044	      0.00000000	      0.00000000	     12.98516620	    -20.09059488	     -2.53827675	     60.53673096	     46.57018239	      0.00000000	      0.00000000
     31.07142857	     -2.52542074	     -3.86439824	     -4.91994768	      1.03630842	      0.93484750	      0.41878162	     26.83539404	     -2.98868926	     -8.31978820	     19.74514526	     19.74514526	     -0.92985302	      2.36763171	      3.26321067	      5.69189409	     -4.72774404	    -12.70333836	     15.79364325	     15.79364325	     12.99952965	     -9.70299133	     -6.20991797	    -11.15123990	      2.24879576	      0.25583112	     -6.40539887	    -17.07894475	    -13.27084436	     26.32436985	     47.48215241	      0.00000000	      0.00000000	     13.42685130	    -20.30286674	     -2.66427686	     60.98314272	     46.59551201	      0.00000000	      0.00000000
     31.08457143	     -2.26513580	     -3.60418038	     -5.13785509	      1.03788343	      0.93459227	      0.42002305	     26.02978896	     -3.05960440	     -8.88692461	     18.27863736	     18.27863736	     -0.95072372	      3.82609800	      3.97673355	      4.46435643	     -4.39029743	    -13.19570807	     14.96289129	     14.96289129	     13.13638855	     -9.12951940	     -6.59090177	    -11.19607079	      2.00947627	      0.36778962	     -7.09404616	    -17.05683309	    -13.52372775	     26.82778313	     47.45323377	      0.00000000	      0.00000000	     13.76119295	    -20.41801844	     -2.82021309	     61.88614248	     46.63391806	      0.00000000	      0.00000000
     31.09771429	     -2.22041959	     -3.26984802	     -5.33905996	      1.03940680	      0.93390006	      0.42137886	     25.56810506	     -3.16160383	     -9.12514364	     17.31888463	     17.31888463	     -1.03659259	      4.60276661	      4.46328101	      3.62711174	     -4.01069629	    -13.56983405	     14.39553603	     14.39553603	     13.27687890	     -8.73881056	     -6.91444772	    -10.90272213	      1.70476753	      0.34463175	     -7.57291227	    -16.83844642	    -13.69245594	     27.23992538	     47.43012221	      0.00000000	      0.00000000	     14.00931335	    -20.54995224	     -2.95828266	     62.50593303	     46.66284410	      0.00000000	      0.00000000
     31.11085714	     -2.02719517	     -2.97934070	     -5.50518519	      1.04126939	      0.93331001	      0.42282041	     24.95879608	     -3.27588329	     -9.42050292	     16.79574648	     16.79574648	     -0.85632327	      5.27053015	      4.76578705	      2.52142009	     -3.64812950	    -13.97951589	     13.66313943	     13.66313943	     13.41690681	     -8.19497684	     -7.33017075	    -10.79341233	      1.46211742	      0.37173906	     -8.08679020	    -16.67266587	    -13.93181380	     27.86038908	     47.39983467	      0.00000000	      0.00000000	     14.18610963	    -20.63385924	     -3.14920227	     63.25311383	     46.69870968	      0.00000000	      0.00000000
